<mxfile host="Electron" agent="Mozilla/5.0 (Windows NT 10.0; Win64; x64) AppleWebKit/537.36 (KHTML, like Gecko) draw.io/26.0.16 Chrome/132.0.6834.196 Electron/34.2.0 Safari/537.36" version="26.0.16">
  <diagram id="R2lEEEUBdFMjLlhIrx00" name="Page-1">
    <mxGraphModel dx="1194" dy="854" grid="1" gridSize="10" guides="1" tooltips="1" connect="1" arrows="1" fold="1" page="1" pageScale="1" pageWidth="850" pageHeight="1100" math="0" shadow="0" extFonts="Permanent Marker^https://fonts.googleapis.com/css?family=Permanent+Marker">
      <root>
        <mxCell id="0" />
        <mxCell id="1" parent="0" />
        <mxCell id="ufy8xFTPhhoXr9E1M19I-3" value="company" style="rounded=0;whiteSpace=wrap;html=1;fillColor=#d5e8d4;strokeColor=#82b366;" parent="1" vertex="1">
          <mxGeometry x="470" y="350" width="100" height="60" as="geometry" />
        </mxCell>
        <mxCell id="ufy8xFTPhhoXr9E1M19I-4" value="is part of" style="rhombus;whiteSpace=wrap;html=1;fillColor=#d5e8d4;strokeColor=#82b366;" parent="1" vertex="1">
          <mxGeometry x="360" y="360" width="80" height="40" as="geometry" />
        </mxCell>
        <mxCell id="ufy8xFTPhhoXr9E1M19I-5" value="user" style="rounded=0;whiteSpace=wrap;html=1;fillColor=#d5e8d4;strokeColor=#82b366;" parent="1" vertex="1">
          <mxGeometry x="230" y="350" width="100" height="60" as="geometry" />
        </mxCell>
        <mxCell id="ufy8xFTPhhoXr9E1M19I-6" value="events" style="rounded=0;whiteSpace=wrap;html=1;fillColor=#d5e8d4;strokeColor=#82b366;" parent="1" vertex="1">
          <mxGeometry x="230" y="670" width="100" height="60" as="geometry" />
        </mxCell>
        <mxCell id="ufy8xFTPhhoXr9E1M19I-8" value="&lt;font style=&quot;font-size: 8px;&quot;&gt;event_attendees&lt;/font&gt;" style="rhombus;whiteSpace=wrap;html=1;fillColor=#d5e8d4;strokeColor=#82b366;" parent="1" vertex="1">
          <mxGeometry x="240" y="550" width="80" height="40" as="geometry" />
        </mxCell>
        <mxCell id="ufy8xFTPhhoXr9E1M19I-9" value="" style="endArrow=none;html=1;rounded=0;" parent="1" source="ufy8xFTPhhoXr9E1M19I-8" target="ufy8xFTPhhoXr9E1M19I-5" edge="1">
          <mxGeometry width="50" height="50" relative="1" as="geometry">
            <mxPoint x="120" y="480" as="sourcePoint" />
            <mxPoint x="170" y="430" as="targetPoint" />
          </mxGeometry>
        </mxCell>
        <mxCell id="ufy8xFTPhhoXr9E1M19I-12" value="n" style="edgeLabel;html=1;align=center;verticalAlign=middle;resizable=0;points=[];" parent="ufy8xFTPhhoXr9E1M19I-9" vertex="1" connectable="0">
          <mxGeometry x="0.0897" y="-1" relative="1" as="geometry">
            <mxPoint as="offset" />
          </mxGeometry>
        </mxCell>
        <mxCell id="ufy8xFTPhhoXr9E1M19I-11" value="" style="endArrow=none;html=1;rounded=0;" parent="1" source="ufy8xFTPhhoXr9E1M19I-6" target="ufy8xFTPhhoXr9E1M19I-8" edge="1">
          <mxGeometry width="50" height="50" relative="1" as="geometry">
            <mxPoint x="120" y="570" as="sourcePoint" />
            <mxPoint x="170" y="520" as="targetPoint" />
          </mxGeometry>
        </mxCell>
        <mxCell id="ufy8xFTPhhoXr9E1M19I-13" value="m" style="edgeLabel;html=1;align=center;verticalAlign=middle;resizable=0;points=[];" parent="ufy8xFTPhhoXr9E1M19I-11" vertex="1" connectable="0">
          <mxGeometry x="0.1862" y="2" relative="1" as="geometry">
            <mxPoint as="offset" />
          </mxGeometry>
        </mxCell>
        <mxCell id="ufy8xFTPhhoXr9E1M19I-15" value="" style="endArrow=none;html=1;rounded=0;" parent="1" source="ufy8xFTPhhoXr9E1M19I-3" target="ufy8xFTPhhoXr9E1M19I-4" edge="1">
          <mxGeometry width="50" height="50" relative="1" as="geometry">
            <mxPoint x="120" y="480" as="sourcePoint" />
            <mxPoint x="170" y="430" as="targetPoint" />
          </mxGeometry>
        </mxCell>
        <mxCell id="ufy8xFTPhhoXr9E1M19I-17" value="1" style="edgeLabel;html=1;align=center;verticalAlign=middle;resizable=0;points=[];" parent="ufy8xFTPhhoXr9E1M19I-15" vertex="1" connectable="0">
          <mxGeometry x="-0.0552" relative="1" as="geometry">
            <mxPoint as="offset" />
          </mxGeometry>
        </mxCell>
        <mxCell id="ufy8xFTPhhoXr9E1M19I-16" value="" style="endArrow=none;html=1;rounded=0;" parent="1" source="ufy8xFTPhhoXr9E1M19I-4" target="ufy8xFTPhhoXr9E1M19I-5" edge="1">
          <mxGeometry width="50" height="50" relative="1" as="geometry">
            <mxPoint x="120" y="480" as="sourcePoint" />
            <mxPoint x="170" y="430" as="targetPoint" />
          </mxGeometry>
        </mxCell>
        <mxCell id="ufy8xFTPhhoXr9E1M19I-18" value="n" style="edgeLabel;html=1;align=center;verticalAlign=middle;resizable=0;points=[];" parent="ufy8xFTPhhoXr9E1M19I-16" vertex="1" connectable="0">
          <mxGeometry x="0.1517" y="-1" relative="1" as="geometry">
            <mxPoint as="offset" />
          </mxGeometry>
        </mxCell>
        <mxCell id="ufy8xFTPhhoXr9E1M19I-20" value="attending" style="ellipse;whiteSpace=wrap;html=1;fillColor=#d5e8d4;strokeColor=#82b366;" parent="1" vertex="1">
          <mxGeometry x="120" y="520" width="80" height="40" as="geometry" />
        </mxCell>
        <mxCell id="ufy8xFTPhhoXr9E1M19I-21" value="attendance" style="ellipse;whiteSpace=wrap;html=1;fillColor=#d5e8d4;strokeColor=#82b366;" parent="1" vertex="1">
          <mxGeometry x="120" y="580" width="80" height="40" as="geometry" />
        </mxCell>
        <mxCell id="ufy8xFTPhhoXr9E1M19I-22" value="" style="endArrow=none;html=1;rounded=0;" parent="1" source="ufy8xFTPhhoXr9E1M19I-8" target="ufy8xFTPhhoXr9E1M19I-20" edge="1">
          <mxGeometry width="50" height="50" relative="1" as="geometry">
            <mxPoint x="360" y="570" as="sourcePoint" />
            <mxPoint x="410" y="520" as="targetPoint" />
          </mxGeometry>
        </mxCell>
        <mxCell id="ufy8xFTPhhoXr9E1M19I-23" value="" style="endArrow=none;html=1;rounded=0;" parent="1" source="ufy8xFTPhhoXr9E1M19I-8" target="ufy8xFTPhhoXr9E1M19I-21" edge="1">
          <mxGeometry width="50" height="50" relative="1" as="geometry">
            <mxPoint x="360" y="570" as="sourcePoint" />
            <mxPoint x="410" y="520" as="targetPoint" />
          </mxGeometry>
        </mxCell>
        <mxCell id="ufy8xFTPhhoXr9E1M19I-24" value="name" style="ellipse;whiteSpace=wrap;html=1;fillColor=#d5e8d4;strokeColor=#82b366;" parent="1" vertex="1">
          <mxGeometry x="150" y="300" width="80" height="40" as="geometry" />
        </mxCell>
        <mxCell id="ufy8xFTPhhoXr9E1M19I-25" value="surname" style="ellipse;whiteSpace=wrap;html=1;fillColor=#d5e8d4;strokeColor=#82b366;" parent="1" vertex="1">
          <mxGeometry x="240" y="270" width="80" height="40" as="geometry" />
        </mxCell>
        <mxCell id="ufy8xFTPhhoXr9E1M19I-26" value="&lt;u&gt;id&lt;/u&gt;" style="ellipse;whiteSpace=wrap;html=1;fillColor=#d5e8d4;strokeColor=#82b366;" parent="1" vertex="1">
          <mxGeometry x="120" y="360" width="80" height="40" as="geometry" />
        </mxCell>
        <mxCell id="ufy8xFTPhhoXr9E1M19I-29" value="name" style="ellipse;whiteSpace=wrap;html=1;fillColor=#d5e8d4;strokeColor=#82b366;" parent="1" vertex="1">
          <mxGeometry x="580" y="300" width="80" height="40" as="geometry" />
        </mxCell>
        <mxCell id="ufy8xFTPhhoXr9E1M19I-30" value="description" style="ellipse;whiteSpace=wrap;html=1;fillColor=#d5e8d4;strokeColor=#82b366;" parent="1" vertex="1">
          <mxGeometry x="580" y="420" width="80" height="40" as="geometry" />
        </mxCell>
        <mxCell id="ufy8xFTPhhoXr9E1M19I-31" value="" style="endArrow=none;html=1;rounded=0;" parent="1" source="ufy8xFTPhhoXr9E1M19I-26" target="ufy8xFTPhhoXr9E1M19I-5" edge="1">
          <mxGeometry width="50" height="50" relative="1" as="geometry">
            <mxPoint x="360" y="480" as="sourcePoint" />
            <mxPoint x="410" y="430" as="targetPoint" />
          </mxGeometry>
        </mxCell>
        <mxCell id="ufy8xFTPhhoXr9E1M19I-32" value="" style="endArrow=none;html=1;rounded=0;" parent="1" source="ufy8xFTPhhoXr9E1M19I-24" target="ufy8xFTPhhoXr9E1M19I-5" edge="1">
          <mxGeometry width="50" height="50" relative="1" as="geometry">
            <mxPoint x="360" y="480" as="sourcePoint" />
            <mxPoint x="410" y="430" as="targetPoint" />
          </mxGeometry>
        </mxCell>
        <mxCell id="ufy8xFTPhhoXr9E1M19I-33" value="" style="endArrow=none;html=1;rounded=0;" parent="1" source="ufy8xFTPhhoXr9E1M19I-25" target="ufy8xFTPhhoXr9E1M19I-5" edge="1">
          <mxGeometry width="50" height="50" relative="1" as="geometry">
            <mxPoint x="360" y="480" as="sourcePoint" />
            <mxPoint x="410" y="430" as="targetPoint" />
          </mxGeometry>
        </mxCell>
        <mxCell id="ufy8xFTPhhoXr9E1M19I-34" value="" style="endArrow=none;html=1;rounded=0;" parent="1" source="ufy8xFTPhhoXr9E1M19I-3" target="ufy8xFTPhhoXr9E1M19I-29" edge="1">
          <mxGeometry width="50" height="50" relative="1" as="geometry">
            <mxPoint x="360" y="480" as="sourcePoint" />
            <mxPoint x="410" y="430" as="targetPoint" />
          </mxGeometry>
        </mxCell>
        <mxCell id="ufy8xFTPhhoXr9E1M19I-35" value="" style="endArrow=none;html=1;rounded=0;" parent="1" source="ufy8xFTPhhoXr9E1M19I-3" target="ufy8xFTPhhoXr9E1M19I-30" edge="1">
          <mxGeometry width="50" height="50" relative="1" as="geometry">
            <mxPoint x="360" y="480" as="sourcePoint" />
            <mxPoint x="410" y="430" as="targetPoint" />
          </mxGeometry>
        </mxCell>
        <mxCell id="81B2QRy_t4SocLdnA_1I-1" value="profession" style="rounded=0;whiteSpace=wrap;html=1;fillColor=#d5e8d4;strokeColor=#82b366;" parent="1" vertex="1">
          <mxGeometry x="790" y="350" width="100" height="60" as="geometry" />
        </mxCell>
        <mxCell id="81B2QRy_t4SocLdnA_1I-2" value="has" style="rhombus;whiteSpace=wrap;html=1;fillColor=#d5e8d4;strokeColor=#82b366;" parent="1" vertex="1">
          <mxGeometry x="640" y="360" width="80" height="40" as="geometry" />
        </mxCell>
        <mxCell id="81B2QRy_t4SocLdnA_1I-3" value="" style="endArrow=none;html=1;rounded=0;" parent="1" source="ufy8xFTPhhoXr9E1M19I-3" target="81B2QRy_t4SocLdnA_1I-2" edge="1">
          <mxGeometry width="50" height="50" relative="1" as="geometry">
            <mxPoint x="590" y="440" as="sourcePoint" />
            <mxPoint x="640" y="390" as="targetPoint" />
          </mxGeometry>
        </mxCell>
        <mxCell id="81B2QRy_t4SocLdnA_1I-5" value="n" style="edgeLabel;html=1;align=center;verticalAlign=middle;resizable=0;points=[];" parent="81B2QRy_t4SocLdnA_1I-3" vertex="1" connectable="0">
          <mxGeometry x="-0.0059" y="-2" relative="1" as="geometry">
            <mxPoint as="offset" />
          </mxGeometry>
        </mxCell>
        <mxCell id="81B2QRy_t4SocLdnA_1I-4" value="" style="endArrow=none;html=1;rounded=0;" parent="1" source="81B2QRy_t4SocLdnA_1I-2" target="81B2QRy_t4SocLdnA_1I-1" edge="1">
          <mxGeometry width="50" height="50" relative="1" as="geometry">
            <mxPoint x="590" y="440" as="sourcePoint" />
            <mxPoint x="640" y="390" as="targetPoint" />
          </mxGeometry>
        </mxCell>
        <mxCell id="81B2QRy_t4SocLdnA_1I-6" value="m" style="edgeLabel;html=1;align=center;verticalAlign=middle;resizable=0;points=[];" parent="81B2QRy_t4SocLdnA_1I-4" vertex="1" connectable="0">
          <mxGeometry x="0.1222" y="-2" relative="1" as="geometry">
            <mxPoint y="-2" as="offset" />
          </mxGeometry>
        </mxCell>
        <mxCell id="81B2QRy_t4SocLdnA_1I-7" value="name" style="ellipse;whiteSpace=wrap;html=1;fillColor=#d5e8d4;strokeColor=#82b366;" parent="1" vertex="1">
          <mxGeometry x="800" y="270" width="80" height="40" as="geometry" />
        </mxCell>
        <mxCell id="81B2QRy_t4SocLdnA_1I-9" value="&lt;u&gt;id&lt;/u&gt;" style="ellipse;whiteSpace=wrap;html=1;fillColor=#d5e8d4;strokeColor=#82b366;" parent="1" vertex="1">
          <mxGeometry x="390" y="300" width="80" height="40" as="geometry" />
        </mxCell>
        <mxCell id="81B2QRy_t4SocLdnA_1I-10" value="&lt;u&gt;id&lt;/u&gt;" style="ellipse;whiteSpace=wrap;html=1;fillColor=#d5e8d4;strokeColor=#82b366;" parent="1" vertex="1">
          <mxGeometry x="710" y="300" width="80" height="40" as="geometry" />
        </mxCell>
        <mxCell id="81B2QRy_t4SocLdnA_1I-11" value="" style="endArrow=none;html=1;rounded=0;" parent="1" source="81B2QRy_t4SocLdnA_1I-9" target="ufy8xFTPhhoXr9E1M19I-3" edge="1">
          <mxGeometry width="50" height="50" relative="1" as="geometry">
            <mxPoint x="590" y="440" as="sourcePoint" />
            <mxPoint x="640" y="390" as="targetPoint" />
          </mxGeometry>
        </mxCell>
        <mxCell id="81B2QRy_t4SocLdnA_1I-12" value="" style="endArrow=none;html=1;rounded=0;" parent="1" source="81B2QRy_t4SocLdnA_1I-1" target="81B2QRy_t4SocLdnA_1I-10" edge="1">
          <mxGeometry width="50" height="50" relative="1" as="geometry">
            <mxPoint x="590" y="440" as="sourcePoint" />
            <mxPoint x="640" y="390" as="targetPoint" />
          </mxGeometry>
        </mxCell>
        <mxCell id="81B2QRy_t4SocLdnA_1I-13" value="" style="endArrow=none;html=1;rounded=0;" parent="1" source="81B2QRy_t4SocLdnA_1I-7" target="81B2QRy_t4SocLdnA_1I-1" edge="1">
          <mxGeometry width="50" height="50" relative="1" as="geometry">
            <mxPoint x="590" y="440" as="sourcePoint" />
            <mxPoint x="640" y="390" as="targetPoint" />
          </mxGeometry>
        </mxCell>
        <mxCell id="81B2QRy_t4SocLdnA_1I-14" value="email" style="ellipse;whiteSpace=wrap;html=1;fillColor=#d5e8d4;strokeColor=#82b366;" parent="1" vertex="1">
          <mxGeometry x="160" y="250" width="80" height="40" as="geometry" />
        </mxCell>
        <mxCell id="81B2QRy_t4SocLdnA_1I-15" value="phonenumber" style="ellipse;whiteSpace=wrap;html=1;fillColor=#d5e8d4;strokeColor=#82b366;" parent="1" vertex="1">
          <mxGeometry x="60" y="320" width="80" height="40" as="geometry" />
        </mxCell>
        <mxCell id="81B2QRy_t4SocLdnA_1I-16" value="" style="endArrow=none;html=1;rounded=0;" parent="1" source="81B2QRy_t4SocLdnA_1I-15" target="ufy8xFTPhhoXr9E1M19I-5" edge="1">
          <mxGeometry width="50" height="50" relative="1" as="geometry">
            <mxPoint x="430" y="480" as="sourcePoint" />
            <mxPoint x="480" y="430" as="targetPoint" />
          </mxGeometry>
        </mxCell>
        <mxCell id="81B2QRy_t4SocLdnA_1I-17" value="" style="endArrow=none;html=1;rounded=0;" parent="1" source="81B2QRy_t4SocLdnA_1I-14" target="ufy8xFTPhhoXr9E1M19I-5" edge="1">
          <mxGeometry width="50" height="50" relative="1" as="geometry">
            <mxPoint x="430" y="480" as="sourcePoint" />
            <mxPoint x="480" y="430" as="targetPoint" />
          </mxGeometry>
        </mxCell>
        <mxCell id="81B2QRy_t4SocLdnA_1I-20" value="" style="endArrow=none;html=1;rounded=0;" parent="1" source="81B2QRy_t4SocLdnA_1I-21" target="ufy8xFTPhhoXr9E1M19I-3" edge="1">
          <mxGeometry width="50" height="50" relative="1" as="geometry">
            <mxPoint x="430" y="480" as="sourcePoint" />
            <mxPoint x="480" y="430" as="targetPoint" />
          </mxGeometry>
        </mxCell>
        <mxCell id="81B2QRy_t4SocLdnA_1I-21" value="domain" style="ellipse;whiteSpace=wrap;html=1;fillColor=#d5e8d4;strokeColor=#82b366;" parent="1" vertex="1">
          <mxGeometry x="480" y="450" width="80" height="40" as="geometry" />
        </mxCell>
        <mxCell id="81B2QRy_t4SocLdnA_1I-24" value="&lt;u&gt;id&lt;/u&gt;" style="ellipse;whiteSpace=wrap;html=1;fillColor=#d5e8d4;strokeColor=#82b366;" parent="1" vertex="1">
          <mxGeometry x="120" y="680" width="80" height="40" as="geometry" />
        </mxCell>
        <mxCell id="81B2QRy_t4SocLdnA_1I-25" value="" style="endArrow=none;html=1;rounded=0;" parent="1" source="81B2QRy_t4SocLdnA_1I-24" target="ufy8xFTPhhoXr9E1M19I-6" edge="1">
          <mxGeometry width="50" height="50" relative="1" as="geometry">
            <mxPoint x="430" y="610" as="sourcePoint" />
            <mxPoint x="480" y="560" as="targetPoint" />
          </mxGeometry>
        </mxCell>
        <mxCell id="81B2QRy_t4SocLdnA_1I-26" value="&lt;span&gt;description&lt;/span&gt;" style="ellipse;whiteSpace=wrap;html=1;fillColor=#d5e8d4;strokeColor=#82b366;fontStyle=0" parent="1" vertex="1">
          <mxGeometry x="240" y="770" width="80" height="40" as="geometry" />
        </mxCell>
        <mxCell id="81B2QRy_t4SocLdnA_1I-27" value="&lt;span&gt;date&lt;/span&gt;" style="ellipse;whiteSpace=wrap;html=1;fillColor=#d5e8d4;strokeColor=#82b366;fontStyle=0" parent="1" vertex="1">
          <mxGeometry x="150" y="740" width="80" height="40" as="geometry" />
        </mxCell>
        <mxCell id="81B2QRy_t4SocLdnA_1I-28" value="" style="endArrow=none;html=1;rounded=0;" parent="1" source="81B2QRy_t4SocLdnA_1I-27" target="ufy8xFTPhhoXr9E1M19I-6" edge="1">
          <mxGeometry width="50" height="50" relative="1" as="geometry">
            <mxPoint x="430" y="610" as="sourcePoint" />
            <mxPoint x="480" y="560" as="targetPoint" />
          </mxGeometry>
        </mxCell>
        <mxCell id="81B2QRy_t4SocLdnA_1I-29" value="" style="endArrow=none;html=1;rounded=0;" parent="1" source="81B2QRy_t4SocLdnA_1I-26" target="ufy8xFTPhhoXr9E1M19I-6" edge="1">
          <mxGeometry width="50" height="50" relative="1" as="geometry">
            <mxPoint x="430" y="610" as="sourcePoint" />
            <mxPoint x="480" y="560" as="targetPoint" />
          </mxGeometry>
        </mxCell>
        <mxCell id="81B2QRy_t4SocLdnA_1I-30" value="&lt;span&gt;location&lt;/span&gt;" style="ellipse;whiteSpace=wrap;html=1;fillColor=#f8cecc;strokeColor=#b85450;fontStyle=0" parent="1" vertex="1">
          <mxGeometry x="330" y="740" width="80" height="40" as="geometry" />
        </mxCell>
        <mxCell id="81B2QRy_t4SocLdnA_1I-31" value="role" style="rounded=0;whiteSpace=wrap;html=1;fillColor=#dae8fc;strokeColor=#6c8ebf;" parent="1" vertex="1">
          <mxGeometry x="470" y="540" width="100" height="60" as="geometry" />
        </mxCell>
        <mxCell id="81B2QRy_t4SocLdnA_1I-32" value="&lt;font style=&quot;font-size: 8px;&quot;&gt;has&lt;/font&gt;" style="rhombus;whiteSpace=wrap;html=1;fillColor=#dae8fc;strokeColor=#6c8ebf;" parent="1" vertex="1">
          <mxGeometry x="360" y="460" width="80" height="40" as="geometry" />
        </mxCell>
        <mxCell id="81B2QRy_t4SocLdnA_1I-33" value="" style="endArrow=none;html=1;rounded=0;" parent="1" source="ufy8xFTPhhoXr9E1M19I-5" target="81B2QRy_t4SocLdnA_1I-32" edge="1">
          <mxGeometry width="50" height="50" relative="1" as="geometry">
            <mxPoint x="470" y="560" as="sourcePoint" />
            <mxPoint x="520" y="510" as="targetPoint" />
          </mxGeometry>
        </mxCell>
        <mxCell id="81B2QRy_t4SocLdnA_1I-34" value="" style="endArrow=none;html=1;rounded=0;" parent="1" source="81B2QRy_t4SocLdnA_1I-32" target="81B2QRy_t4SocLdnA_1I-31" edge="1">
          <mxGeometry width="50" height="50" relative="1" as="geometry">
            <mxPoint x="470" y="560" as="sourcePoint" />
            <mxPoint x="520" y="510" as="targetPoint" />
          </mxGeometry>
        </mxCell>
        <mxCell id="81B2QRy_t4SocLdnA_1I-36" value="" style="rounded=0;whiteSpace=wrap;html=1;fillColor=#dae8fc;strokeColor=#6c8ebf;" parent="1" vertex="1">
          <mxGeometry x="650" y="650" width="20" height="20" as="geometry" />
        </mxCell>
        <mxCell id="81B2QRy_t4SocLdnA_1I-37" value="Konzept" style="text;html=1;align=left;verticalAlign=middle;resizable=0;points=[];autosize=1;strokeColor=none;fillColor=none;" parent="1" vertex="1">
          <mxGeometry x="680" y="645" width="70" height="30" as="geometry" />
        </mxCell>
        <mxCell id="81B2QRy_t4SocLdnA_1I-44" value="" style="rounded=0;whiteSpace=wrap;html=1;fillColor=#ffe6cc;strokeColor=#d79b00;" parent="1" vertex="1">
          <mxGeometry x="650" y="610" width="20" height="20" as="geometry" />
        </mxCell>
        <mxCell id="81B2QRy_t4SocLdnA_1I-45" value="zu besprechen" style="text;html=1;align=left;verticalAlign=middle;resizable=0;points=[];autosize=1;strokeColor=none;fillColor=none;" parent="1" vertex="1">
          <mxGeometry x="680" y="605" width="100" height="30" as="geometry" />
        </mxCell>
        <mxCell id="81B2QRy_t4SocLdnA_1I-54" value="" style="rounded=0;whiteSpace=wrap;html=1;fillColor=#f8cecc;strokeColor=#b85450;" parent="1" vertex="1">
          <mxGeometry x="650" y="570" width="20" height="20" as="geometry" />
        </mxCell>
        <mxCell id="81B2QRy_t4SocLdnA_1I-55" value="" style="rounded=0;whiteSpace=wrap;html=1;fillColor=#d5e8d4;strokeColor=#82b366;" parent="1" vertex="1">
          <mxGeometry x="650" y="530" width="20" height="20" as="geometry" />
        </mxCell>
        <mxCell id="81B2QRy_t4SocLdnA_1I-56" value="zu implementieren" style="text;html=1;align=left;verticalAlign=middle;resizable=0;points=[];autosize=1;strokeColor=none;fillColor=none;" parent="1" vertex="1">
          <mxGeometry x="680" y="565" width="120" height="30" as="geometry" />
        </mxCell>
        <mxCell id="81B2QRy_t4SocLdnA_1I-57" value="implementiert" style="text;html=1;align=left;verticalAlign=middle;resizable=0;points=[];autosize=1;strokeColor=none;fillColor=none;" parent="1" vertex="1">
          <mxGeometry x="680" y="525" width="100" height="30" as="geometry" />
        </mxCell>
        <mxCell id="81B2QRy_t4SocLdnA_1I-58" value="" style="endArrow=none;html=1;rounded=0;" parent="1" source="81B2QRy_t4SocLdnA_1I-30" target="ufy8xFTPhhoXr9E1M19I-6" edge="1">
          <mxGeometry width="50" height="50" relative="1" as="geometry">
            <mxPoint x="490" y="560" as="sourcePoint" />
            <mxPoint x="540" y="510" as="targetPoint" />
          </mxGeometry>
        </mxCell>
        <mxCell id="81B2QRy_t4SocLdnA_1I-60" value="password" style="ellipse;whiteSpace=wrap;html=1;fillColor=#dae8fc;strokeColor=#6c8ebf;" parent="1" vertex="1">
          <mxGeometry x="190" y="470" width="80" height="40" as="geometry" />
        </mxCell>
        <mxCell id="81B2QRy_t4SocLdnA_1I-61" value="" style="endArrow=none;html=1;rounded=0;" parent="1" source="81B2QRy_t4SocLdnA_1I-60" target="ufy8xFTPhhoXr9E1M19I-5" edge="1">
          <mxGeometry width="50" height="50" relative="1" as="geometry">
            <mxPoint x="330" y="480" as="sourcePoint" />
            <mxPoint x="380" y="430" as="targetPoint" />
          </mxGeometry>
        </mxCell>
        <mxCell id="CpIukcm8Wvf3xs-LeFMY-1" value="address" style="rounded=0;whiteSpace=wrap;html=1;fillColor=#d5e8d4;strokeColor=#82b366;" parent="1" vertex="1">
          <mxGeometry x="470" y="140" width="100" height="60" as="geometry" />
        </mxCell>
        <mxCell id="CpIukcm8Wvf3xs-LeFMY-2" value="located at" style="rhombus;whiteSpace=wrap;html=1;fillColor=#d5e8d4;strokeColor=#82b366;" parent="1" vertex="1">
          <mxGeometry x="480" y="250" width="80" height="40" as="geometry" />
        </mxCell>
        <mxCell id="CpIukcm8Wvf3xs-LeFMY-3" value="" style="endArrow=none;html=1;rounded=0;" parent="1" source="CpIukcm8Wvf3xs-LeFMY-2" target="ufy8xFTPhhoXr9E1M19I-3" edge="1">
          <mxGeometry width="50" height="50" relative="1" as="geometry">
            <mxPoint x="540" y="420" as="sourcePoint" />
            <mxPoint x="590" y="370" as="targetPoint" />
          </mxGeometry>
        </mxCell>
        <mxCell id="CpIukcm8Wvf3xs-LeFMY-5" value="1" style="edgeLabel;html=1;align=center;verticalAlign=middle;resizable=0;points=[];" parent="CpIukcm8Wvf3xs-LeFMY-3" vertex="1" connectable="0">
          <mxGeometry x="0.28" relative="1" as="geometry">
            <mxPoint as="offset" />
          </mxGeometry>
        </mxCell>
        <mxCell id="CpIukcm8Wvf3xs-LeFMY-4" value="" style="endArrow=none;html=1;rounded=0;" parent="1" source="CpIukcm8Wvf3xs-LeFMY-2" target="CpIukcm8Wvf3xs-LeFMY-1" edge="1">
          <mxGeometry width="50" height="50" relative="1" as="geometry">
            <mxPoint x="540" y="420" as="sourcePoint" />
            <mxPoint x="590" y="370" as="targetPoint" />
          </mxGeometry>
        </mxCell>
        <mxCell id="CpIukcm8Wvf3xs-LeFMY-6" value="1" style="edgeLabel;html=1;align=center;verticalAlign=middle;resizable=0;points=[];" parent="CpIukcm8Wvf3xs-LeFMY-4" vertex="1" connectable="0">
          <mxGeometry x="0.6" relative="1" as="geometry">
            <mxPoint y="8" as="offset" />
          </mxGeometry>
        </mxCell>
        <mxCell id="CpIukcm8Wvf3xs-LeFMY-7" value="&lt;u&gt;id&lt;/u&gt;" style="ellipse;whiteSpace=wrap;html=1;fillColor=#d5e8d4;strokeColor=#82b366;" parent="1" vertex="1">
          <mxGeometry x="385" y="210" width="80" height="40" as="geometry" />
        </mxCell>
        <mxCell id="CpIukcm8Wvf3xs-LeFMY-8" value="street" style="ellipse;whiteSpace=wrap;html=1;fillColor=#d5e8d4;strokeColor=#82b366;" parent="1" vertex="1">
          <mxGeometry x="360" y="150" width="80" height="40" as="geometry" />
        </mxCell>
        <mxCell id="CpIukcm8Wvf3xs-LeFMY-9" value="house_number" style="ellipse;whiteSpace=wrap;html=1;fillColor=#d5e8d4;strokeColor=#82b366;" parent="1" vertex="1">
          <mxGeometry x="385" y="90" width="80" height="40" as="geometry" />
        </mxCell>
        <mxCell id="CpIukcm8Wvf3xs-LeFMY-10" value="postal_code" style="ellipse;whiteSpace=wrap;html=1;fillColor=#d5e8d4;strokeColor=#82b366;" parent="1" vertex="1">
          <mxGeometry x="480" y="70" width="80" height="40" as="geometry" />
        </mxCell>
        <mxCell id="CpIukcm8Wvf3xs-LeFMY-11" value="city" style="ellipse;whiteSpace=wrap;html=1;fillColor=#d5e8d4;strokeColor=#82b366;" parent="1" vertex="1">
          <mxGeometry x="580" y="90" width="80" height="40" as="geometry" />
        </mxCell>
        <mxCell id="CpIukcm8Wvf3xs-LeFMY-12" value="" style="endArrow=none;html=1;rounded=0;" parent="1" source="CpIukcm8Wvf3xs-LeFMY-9" target="CpIukcm8Wvf3xs-LeFMY-1" edge="1">
          <mxGeometry width="50" height="50" relative="1" as="geometry">
            <mxPoint x="510" y="390" as="sourcePoint" />
            <mxPoint x="560" y="340" as="targetPoint" />
          </mxGeometry>
        </mxCell>
        <mxCell id="CpIukcm8Wvf3xs-LeFMY-13" value="" style="endArrow=none;html=1;rounded=0;" parent="1" source="CpIukcm8Wvf3xs-LeFMY-8" target="CpIukcm8Wvf3xs-LeFMY-1" edge="1">
          <mxGeometry width="50" height="50" relative="1" as="geometry">
            <mxPoint x="510" y="390" as="sourcePoint" />
            <mxPoint x="560" y="340" as="targetPoint" />
          </mxGeometry>
        </mxCell>
        <mxCell id="CpIukcm8Wvf3xs-LeFMY-14" value="" style="endArrow=none;html=1;rounded=0;" parent="1" source="CpIukcm8Wvf3xs-LeFMY-7" target="CpIukcm8Wvf3xs-LeFMY-1" edge="1">
          <mxGeometry width="50" height="50" relative="1" as="geometry">
            <mxPoint x="510" y="390" as="sourcePoint" />
            <mxPoint x="560" y="340" as="targetPoint" />
          </mxGeometry>
        </mxCell>
        <mxCell id="CpIukcm8Wvf3xs-LeFMY-15" value="" style="endArrow=none;html=1;rounded=0;" parent="1" source="CpIukcm8Wvf3xs-LeFMY-1" target="CpIukcm8Wvf3xs-LeFMY-10" edge="1">
          <mxGeometry width="50" height="50" relative="1" as="geometry">
            <mxPoint x="520" y="180" as="sourcePoint" />
            <mxPoint x="560" y="340" as="targetPoint" />
          </mxGeometry>
        </mxCell>
        <mxCell id="CpIukcm8Wvf3xs-LeFMY-16" value="" style="endArrow=none;html=1;rounded=0;" parent="1" source="CpIukcm8Wvf3xs-LeFMY-1" target="CpIukcm8Wvf3xs-LeFMY-11" edge="1">
          <mxGeometry width="50" height="50" relative="1" as="geometry">
            <mxPoint x="510" y="390" as="sourcePoint" />
            <mxPoint x="560" y="340" as="targetPoint" />
          </mxGeometry>
        </mxCell>
      </root>
    </mxGraphModel>
  </diagram>
</mxfile>
